<svg width="48" height="48" viewBox="0 0 48 48" fill="none" xmlns="http://www.w3.org/2000/svg">
<path fill-rule="evenodd" clip-rule="evenodd" d="M40 24C40 32.8366 32.8366 40 24 40C21.4405 40 19.0214 39.399 16.876 38.3305C16.3059 38.0465 15.6543 37.952 15.039 38.1166L11.4774 39.0696C9.93122 39.4833 8.51673 38.0688 8.93042 36.5226L9.88339 32.961C10.048 32.3457 9.9535 31.6941 9.66954 31.124C8.60099 28.9786 8 26.5595 8 24C8 15.1634 15.1634 8 24 8C32.8366 8 40 15.1634 40 24ZM16.8 22.5735C16.8 24.7629 18.9101 27.0601 20.8457 28.7068C22.1639 29.8282 22.823 30.3889 24 30.3889C25.177 30.3889 25.8361 29.8282 27.1543 28.7068C29.0899 27.0602 31.2 24.7629 31.2 22.5734C31.2 18.29 27.2399 16.6907 24 19.9997C20.7601 16.6907 16.8 18.29 16.8 22.5735Z" fill="#004293"/>
</svg>
