<svg width="48" height="48" viewBox="0 0 48 48" fill="none" xmlns="http://www.w3.org/2000/svg">
<path fill-rule="evenodd" clip-rule="evenodd" d="M20.1478 9.92043C19.7582 10.2525 19.5634 10.4185 19.3553 10.558C18.8783 10.8777 18.3427 11.0995 17.7794 11.2108C17.5336 11.2593 17.2785 11.2796 16.7681 11.3204C15.4859 11.4227 14.8448 11.4738 14.3099 11.6628C13.0728 12.0997 12.0997 13.0728 11.6628 14.3099C11.4738 14.8448 11.4227 15.4859 11.3204 16.7681C11.2796 17.2785 11.2593 17.5336 11.2108 17.7794C11.0995 18.3427 10.8777 18.8783 10.558 19.3553C10.4185 19.5634 10.2525 19.7582 9.92043 20.1478C9.08614 21.1268 8.66897 21.6164 8.42435 22.1282C7.85855 23.3119 7.85855 24.6881 8.42435 25.8718C8.66897 26.3836 9.08612 26.8731 9.92043 27.8522C10.2525 28.2418 10.4185 28.4366 10.558 28.6447C10.8777 29.1217 11.0995 29.6573 11.2108 30.2206C11.2593 30.4664 11.2796 30.7215 11.3204 31.2319C11.4227 32.5141 11.4738 33.1552 11.6628 33.6901C12.0997 34.9272 13.0728 35.9003 14.3099 36.3372C14.8448 36.5262 15.4859 36.5773 16.7681 36.6796C17.2785 36.7204 17.5336 36.7407 17.7794 36.7892C18.3427 36.9005 18.8783 37.1223 19.3553 37.442C19.5634 37.5815 19.7582 37.7475 20.1478 38.0796C21.1269 38.9139 21.6164 39.331 22.1282 39.5757C23.3119 40.1414 24.6881 40.1414 25.8718 39.5757C26.3836 39.331 26.8731 38.9139 27.8522 38.0796C28.2418 37.7475 28.4366 37.5815 28.6447 37.442C29.1217 37.1223 29.6573 36.9005 30.2206 36.7892C30.4664 36.7407 30.7215 36.7204 31.2319 36.6796C32.5141 36.5773 33.1552 36.5262 33.6901 36.3372C34.9272 35.9003 35.9003 34.9272 36.3372 33.6901C36.5262 33.1552 36.5773 32.5141 36.6796 31.2319C36.7204 30.7215 36.7407 30.4664 36.7892 30.2206C36.9005 29.6573 37.1223 29.1217 37.442 28.6447C37.5815 28.4366 37.7475 28.2418 38.0796 27.8522C38.9139 26.8731 39.331 26.3836 39.5757 25.8718C40.1414 24.6881 40.1414 23.3119 39.5757 22.1282C39.331 21.6164 38.9139 21.1269 38.0796 20.1478C37.7475 19.7582 37.5815 19.5634 37.442 19.3553C37.1223 18.8783 36.9005 18.3427 36.7892 17.7794C36.7407 17.5336 36.7204 17.2785 36.6796 16.7681C36.5773 15.4859 36.5262 14.8448 36.3372 14.3099C35.9003 13.0728 34.9272 12.0997 33.6901 11.6628C33.1552 11.4738 32.5141 11.4227 31.2319 11.3204C30.7215 11.2796 30.4664 11.2593 30.2206 11.2108C29.6573 11.0995 29.1217 10.8777 28.6447 10.558C28.4366 10.4185 28.2418 10.2525 27.8522 9.92043C26.8731 9.08612 26.3836 8.66897 25.8718 8.42435C24.6881 7.85855 23.3119 7.85855 22.1282 8.42435C21.6164 8.66897 21.1268 9.08613 20.1478 9.92043ZM30.9976 20.581C31.5061 20.0725 31.5061 19.248 30.9976 18.7395C30.489 18.2309 29.6646 18.2309 29.156 18.7395L21.3956 26.4999L18.8439 23.9482C18.3354 23.4396 17.5109 23.4396 17.0024 23.9482C16.4938 24.4567 16.4938 25.2812 17.0024 25.7897L20.4748 29.2622C20.9834 29.7707 21.8079 29.7707 22.3164 29.2622L30.9976 20.581Z" fill="#004293"/>
</svg>
