<svg width="48" height="48" viewBox="0 0 48 48" fill="none" xmlns="http://www.w3.org/2000/svg">
<path d="M24.0002 22C21.1283 22 18.8002 24.3281 18.8002 27.2C18.8002 30.0719 21.1283 32.4 24.0002 32.4C26.8721 32.4 29.2002 30.0719 29.2002 27.2C29.2002 24.3281 26.8721 22 24.0002 22Z" fill="#004293"/>
<path fill-rule="evenodd" clip-rule="evenodd" d="M11.2002 20.8C11.2002 14.766 11.2002 11.749 13.0747 9.87452C14.9492 8 17.9662 8 24.0002 8C30.0342 8 33.0512 8 34.9257 9.87452C36.8002 11.749 36.8002 14.766 36.8002 20.8V27.2C36.8002 33.234 36.8002 36.251 34.9257 38.1255C33.0512 40 30.0342 40 24.0002 40C17.9662 40 14.9492 40 13.0747 38.1255C11.2002 36.251 11.2002 33.234 11.2002 27.2V20.8ZM16.4002 27.2C16.4002 23.0026 19.8028 19.6 24.0002 19.6C28.1976 19.6 31.6002 23.0026 31.6002 27.2C31.6002 31.3974 28.1976 34.8 24.0002 34.8C19.8028 34.8 16.4002 31.3974 16.4002 27.2ZM20.8002 13.2C20.1375 13.2 19.6002 13.7373 19.6002 14.4C19.6002 15.0627 20.1375 15.6 20.8002 15.6H27.2002C27.8629 15.6 28.4002 15.0627 28.4002 14.4C28.4002 13.7373 27.8629 13.2 27.2002 13.2H20.8002Z" fill="#004293"/>
</svg>
