<svg width="40" height="40" viewBox="0 0 40 40" fill="none" xmlns="http://www.w3.org/2000/svg">
<g filter="url(#filter0_d_59_142)">
<rect x="4" y="2" width="32" height="32" rx="16" fill="#004293" shape-rendering="geometricPrecision"/>
<path d="M20.3938 21.2043C20.2928 21.3148 20.15 21.3778 20.0002 21.3778C19.8505 21.3778 19.7077 21.3148 19.6066 21.2043L16.7622 18.0932C16.5634 17.8758 16.5785 17.5385 16.7959 17.3397C17.0133 17.1409 17.3506 17.1561 17.5494 17.3734L19.4669 19.4707V11.6C19.4669 11.3054 19.7057 11.0667 20.0002 11.0667C20.2948 11.0667 20.5336 11.3054 20.5336 11.6V19.4707L22.4511 17.3734C22.6498 17.1561 22.9872 17.1409 23.2046 17.3397C23.4219 17.5385 23.437 17.8758 23.2383 18.0932L20.3938 21.2043Z" fill="white"/>
<path d="M14.1336 20.1333C14.1336 19.8388 13.8948 19.6 13.6002 19.6C13.3057 19.6 13.0669 19.8388 13.0669 20.1333V20.1723C13.0669 21.1448 13.0669 21.9287 13.1498 22.5452C13.2358 23.1853 13.4199 23.7242 13.8479 24.1523C14.276 24.5803 14.8149 24.7644 15.455 24.8505C16.0715 24.9333 16.8554 24.9333 17.8279 24.9333H22.1726C23.1451 24.9333 23.929 24.9333 24.5455 24.8505C25.1856 24.7644 25.7245 24.5803 26.1525 24.1523C26.5805 23.7242 26.7646 23.1853 26.8507 22.5452C26.9336 21.9287 26.9336 21.1448 26.9336 20.1723V20.1333C26.9336 19.8388 26.6948 19.6 26.4002 19.6C26.1057 19.6 25.8669 19.8388 25.8669 20.1333C25.8669 21.1541 25.8658 21.866 25.7935 22.4031C25.7234 22.9249 25.5951 23.2012 25.3983 23.398C25.2015 23.5948 24.9251 23.7231 24.4033 23.7933C23.8662 23.8655 23.1543 23.8667 22.1336 23.8667H17.8669C16.8462 23.8667 16.1343 23.8655 15.5971 23.7933C15.0753 23.7231 14.799 23.5948 14.6022 23.398C14.4054 23.2012 14.2771 22.9249 14.2069 22.4031C14.1347 21.866 14.1336 21.1541 14.1336 20.1333Z" fill="white"/>
</g>
<defs>
<filter id="filter0_d_59_142" x="0" y="0" width="40" height="40" filterUnits="userSpaceOnUse" color-interpolation-filters="sRGB">
<feFlood flood-opacity="0" result="BackgroundImageFix"/>
<feColorMatrix in="SourceAlpha" type="matrix" values="0 0 0 0 0 0 0 0 0 0 0 0 0 0 0 0 0 0 127 0" result="hardAlpha"/>
<feOffset dy="2"/>
<feGaussianBlur stdDeviation="2"/>
<feComposite in2="hardAlpha" operator="out"/>
<feColorMatrix type="matrix" values="0 0 0 0 0 0 0 0 0 0 0 0 0 0 0 0 0 0 0.1 0"/>
<feBlend mode="normal" in2="BackgroundImageFix" result="effect1_dropShadow_59_142"/>
<feBlend mode="normal" in="SourceGraphic" in2="effect1_dropShadow_59_142" result="shape"/>
</filter>
</defs>
</svg>
