<svg width="160" height="129" viewBox="0 0 160 129" fill="none" xmlns="http://www.w3.org/2000/svg">
<g id="logo">
<path id="path2" fill-rule="evenodd" clip-rule="evenodd" d="M30.7266 120.058C31.3423 119.769 31.931 119.381 32.5741 119.191C33.4696 118.927 38.1441 118.099 39.0768 118.026C39.9454 117.958 41.2255 118.309 43.028 118.089C44.4836 117.912 44.9061 117.659 46.0106 116.609C46.645 116.006 47.2052 115.331 47.8025 114.692C48.0842 114.335 48.3657 113.978 48.6473 113.621L51.2309 113.148C51.399 112.337 51.4417 111.655 52.1183 110.844C52.6855 110.164 53.4047 109.618 54.0276 108.985C54.2769 108.732 56.8288 106.127 56.8841 105.925C56.9965 105.515 56.9538 105.089 57.0953 104.685C57.3397 103.985 57.615 103.278 58.0318 102.643C58.3811 102.11 59.6457 103.674 60.912 103.415C61.6556 103.263 61.3922 102.521 61.6117 102.292C61.8255 102.07 62.174 102.06 62.4586 101.956C62.795 101.833 63.1357 101.727 63.4742 101.613C63.6715 100.906 64.0449 99.1423 64.4703 98.5519C64.7295 98.1921 65.6097 97.8578 65.9166 97.2496C66.4253 96.2419 65.439 96.2458 67.9326 93.899C68.6873 93.1887 69.5117 92.5718 70.2579 91.9545C70.4699 92.4629 70.4717 92.4938 70.5439 93.0662C70.7522 92.9692 70.853 93.1601 71.169 92.7752C71.4849 92.3902 71.9264 91.3877 72.3679 90.8432C72.7352 90.39 74.607 88.7952 75.0303 88.5305C75.3814 88.3109 75.488 88.2178 75.8538 88.2533C76.4514 88.3115 77.2858 89.039 78.2433 88.8809C78.6465 88.8142 79.8495 87.9676 80.4023 87.6779C81.0312 87.3485 84.1035 85.9208 84.4685 85.6499C84.8958 85.3326 85.3908 84.6847 85.7508 84.4083C86.1106 84.1319 86.3523 84.2407 86.5934 84.0184C86.8345 83.7962 86.9374 83.4371 87.1161 83.1497C87.2539 82.928 87.4661 82.7337 87.5427 82.4912C87.6885 82.0297 87.5556 81.5279 87.7688 81.0844C87.8583 80.8983 88.1638 80.763 88.3405 80.8316C88.7124 80.9757 88.5974 82.2761 89.5184 82.5229C90.053 82.6663 89.8426 81.0447 90.4441 80.7011C91.2031 80.2675 91.3361 81.2473 92.0037 81.1717C92.67 81.0962 92.3238 80.4474 92.4219 80.0522C92.5092 79.6993 92.5961 79.2928 92.8761 79.0342C93.2663 78.6739 93.9238 78.7257 94.1179 79.4064C94.2777 79.9671 94.0258 80.8063 94.4146 81.3594C94.4878 81.4637 94.6805 81.3958 94.8135 81.414C95.2698 80.5038 95.6716 79.4966 96.4945 78.812C96.8323 78.5309 97.1693 78.7446 97.2221 79.0987C97.3067 79.6671 96.8652 80.89 97.5251 81.1321C98.7489 81.5812 99.1806 80.1615 99.9039 79.857C100.712 79.5166 102.37 80.095 103.445 79.7321C104.344 79.4291 104.738 78.016 105.837 77.9102C106.518 77.8445 107.582 78.6361 108.205 78.2699C108.895 77.8645 109.42 76.7433 109.969 76.3584C111.039 75.6088 112.74 76.0572 114.125 75.1012C114.986 74.507 116.209 72.9734 117.347 72.3751C118.007 72.0281 120.487 71.6027 121.176 71.6199C123.277 71.6726 123.734 72.31 124.797 73.9007C125.401 74.8054 125.395 76.0333 125.753 77.0524C125.945 77.601 126.336 78.0527 126.498 78.6146C127.108 80.7431 126.682 83.222 126.342 85.5036C126.166 86.6874 125.855 88.8865 125.261 89.9694C123.667 92.877 119.895 96.1749 117.589 98.7478C116.893 99.5244 116.313 100.39 115.642 101.186C114.677 102.331 113.405 103.799 112.356 104.878C113.154 105.145 116.12 106.053 116.577 106.547C117.53 107.577 116.687 108.395 115.309 107.976C114.541 107.742 113.349 106.673 112.7 106.359C112.253 106.143 111.753 106.026 111.279 105.86C110.652 106.36 109.986 106.815 109.398 107.36C109.001 107.727 108.692 108.176 108.339 108.583L110.537 110.338C111.175 111.002 110.621 111.177 110.377 111.16C109.909 111.129 108.813 110.378 108.352 110.159C107.959 109.972 107.537 109.836 107.13 109.674C106.681 110.071 105.608 110.73 105.899 111.204C106.509 112.201 107.286 111.707 107.802 111.741C107.973 111.752 108.202 111.768 108.267 111.918C108.524 112.511 107.953 112.911 107.399 113.048C106.578 113.249 105.745 113.349 104.92 113.418C103.745 113.516 102.406 113.203 101.566 113.777C101.072 114.114 100.703 114.615 100.224 114.976C99.4938 115.526 98.6379 115.898 97.9499 116.502C97.6319 116.781 98.1617 117.491 98.0182 117.712C97.5796 118.389 95.068 118.495 94.8202 118.611C94.2556 119.071 93.6987 119.541 93.1264 119.991C90.7164 121.885 88.2621 123.914 85.3715 124.895C84.0499 125.343 79.4702 126.289 78.0623 126.551C76.506 126.841 74.9451 127.039 73.388 127.316C69.8514 127.945 66.2114 128.85 62.6695 128.988C61.2807 129.043 59.9148 128.897 58.5625 128.739C55.2577 128.354 55.3482 127.863 51.4495 127.906C50.6671 127.915 49.7132 128.008 49.0621 127.659C47.5212 126.834 46.4503 125.801 45.2366 124.577C44.6898 124.025 45.0231 123.447 43.2054 122.434C43.0447 122.345 42.8257 122.385 42.6357 122.36C42.6228 122.553 42.7729 122.83 42.5974 122.939C41.5384 123.597 40.6866 121.469 40.2611 120.859C40.1373 120.681 39.9723 120.537 39.8279 120.376C39.003 120.517 38.1776 120.65 37.3531 120.8C36.1586 121.017 34.9661 121.269 33.7711 121.477C32.5199 121.695 32.9831 121.656 31.8125 120.952C31.5235 120.778 31.2111 120.633 30.9527 120.42C30.8429 120.33 30.8019 120.179 30.7266 120.058Z" fill="#004293"/>
<path id="path4" fill-rule="evenodd" clip-rule="evenodd" d="M57.6102 105.795C57.6492 106.189 57.6692 107.777 58.0092 107.969C58.5587 108.278 59.3469 107.547 59.6177 108.7C59.9086 109.938 58.89 110.397 58.1374 111.338C56.5503 113.324 57.7791 113.369 58.2996 113.016C59.0006 112.543 61.1476 109.295 61.5802 108.571C62.169 107.587 62.6636 106.555 63.1116 105.515C63.3296 105.009 64.3366 101.892 64.4681 101.327C64.5709 100.884 64.548 100.438 64.6152 99.9929C64.6526 99.7453 64.5678 99.4107 64.7816 99.2527C65.2003 98.9429 65.8046 99.0797 66.2384 98.7925C66.4317 98.6646 66.3932 98.3691 66.441 98.1536C66.7441 96.785 66.6168 94.5537 68.3329 95.3771C68.7444 95.5746 69.2134 96.465 69.8283 96.1044C70.0615 95.9677 70.0259 94.6303 70.2953 94.189C70.5158 93.8283 71.0378 93.7427 71.3342 93.4339C72.0395 92.699 73.3324 90.2679 74.7129 89.8652C74.9093 89.808 75.0639 90.0254 75.2611 90.025C75.4875 90.0245 77.543 89.5461 77.2194 90.1961C77.0727 90.4907 75.2968 93.043 75.0501 93.3822C74.2533 94.478 73.5621 94.4093 74.1075 96.0465C74.3074 96.6468 74.9127 96.6717 75.1869 96.1523C75.6745 95.2281 74.7369 94.789 78.365 90.7774C79.1145 89.9486 80.5318 88.5822 81.4707 88.025C82.3023 87.5313 83.7372 87.4442 84.4891 87.0018C84.9558 86.7272 85.8744 84.6773 86.4152 85.0062C86.9669 85.3416 86.4126 85.6873 87.7997 86.1092C88.5896 86.3496 89.1424 86.1537 89.6107 86.9079C89.8069 87.2234 89.8615 88.0245 90.3511 88.0608C91.295 88.1306 90.9336 85.5758 91.3023 85.1503C91.5144 84.9053 91.9001 84.6196 92.1705 84.7286C92.4845 84.8553 92.3819 85.3726 92.5544 85.6554C92.8232 86.0961 93.4242 86.2339 93.3994 87.4119C93.3628 89.1485 91.2775 93.0335 90.2214 94.5525C89.6651 95.3526 88.0379 97.2711 87.3439 98.0462C87.2462 98.1552 85.281 99.988 85.757 100.054C86.4341 100.148 88.1309 98.3267 88.5684 97.8507C91.0235 95.1795 92.6688 92.9134 93.8602 89.6541C94.086 89.0366 93.6739 88.5515 94.965 87.6086C95.7516 87.0342 96.3398 87.7034 95.9912 88.4587L91.8533 95.5779C90.5213 97.7116 89.7691 98.5969 88.0737 100.478C87.5533 101.055 87.0372 101.641 86.4611 102.165C85.9755 102.607 84.2536 103.488 84.6438 104.111C85.119 104.871 87.8744 102.279 88.2699 101.878C88.808 101.331 89.2159 100.678 89.7056 100.091C90.4162 99.238 91.1983 98.4377 91.8705 97.5575C92.536 96.6861 93.0854 95.7424 93.7113 94.8458C94.3161 93.979 95.0184 93.1676 95.5627 92.2678C96.389 90.9016 97.2762 88.9585 97.6294 87.4454C97.7839 86.7833 97.5584 85.732 98.0963 84.4707C99.0286 82.2849 99.8628 82.7793 101.07 82.533C101.304 82.4853 101.582 82.4617 101.755 82.2847C101.984 82.05 101.911 81.6232 102.164 81.4135C102.382 81.2323 102.754 81.1485 102.97 81.2761C103.686 81.6985 102.97 84.3554 102.678 85.0301C102.345 85.8029 100.097 89.9617 99.6625 90.6708C99.0335 91.6985 96.932 94.6156 96.1325 95.52C95.308 96.4527 94.3966 97.3109 93.4982 98.1762C92.3864 99.247 91.1647 100.196 90.145 101.359C90.0291 101.492 89.779 101.72 89.8997 101.817C90.7022 102.462 93.8051 99.348 94.3152 98.8789C95.7023 97.6031 96.0164 97.2145 97.199 95.8186C99.0242 93.6643 99.0473 93.7187 100.614 91.2918C101.449 89.9978 103.188 87.227 103.739 85.9548C104.948 83.1627 104.117 82.1158 104.278 81.0637C104.36 80.5263 104.692 79.861 105.338 79.8695C106.08 79.8793 106.081 80.6191 107.177 79.9562C107.725 79.6245 108.338 78.8284 109.171 78.4628C110.637 77.8201 112.006 77.9851 112.606 77.708C113.713 77.1961 116.865 73.381 117.949 72.978C118.86 72.6391 120.634 72.7 121.477 73.0461C123.065 73.6979 122.741 74.3303 123.286 75.5837C123.435 75.9254 123.709 76.2013 123.815 76.5624C124.047 77.3464 124.089 78.1965 124.291 78.9916C124.446 79.6021 124.744 80.157 124.884 80.7722C125.047 81.485 125.088 82.2345 125.2 82.9625C125.481 84.7755 125.829 84.5526 125.087 86.843C124.952 87.2605 124.661 87.6346 124.507 88.0479C124.204 88.8634 124.187 89.7325 123.59 90.6799C123.321 91.1074 121.098 93.7756 120.738 94.1411C120.134 94.7553 119.426 95.2611 118.789 95.8426C118.2 96.3807 117.643 96.9529 117.061 97.4991C116.24 98.2699 115.318 98.9728 114.719 99.9327C114.405 100.436 114.302 101.03 113.973 101.525C113.539 102.174 112.96 102.727 112.454 103.329C112.072 103.782 111.66 104.534 111.003 104.575C110.029 104.636 108.971 104.147 108.028 104.014C104.794 103.559 99.3589 103.757 96.0583 104.472C94.5745 104.794 94.7177 105.332 96.1757 105.236C96.9287 105.187 97.6861 105.04 98.439 104.992C99.9405 104.896 101.744 104.861 103.249 104.88C103.977 104.89 104.696 104.956 105.425 104.952C106.129 104.949 107.176 104.557 107.565 105.277C107.649 105.433 107.618 105.704 107.469 105.839C107.183 106.097 106.154 106.06 105.771 106.457C105.668 106.565 105.89 106.723 106.02 106.76C106.53 106.901 107.368 106.355 107.151 107.507C107.052 108.034 106.145 108.271 105.741 108.202C105.053 108.085 103.182 106.971 102.153 106.679C101.333 106.447 98.6146 106.148 97.5901 106.007C97.0104 105.927 96.4488 105.754 95.8515 105.764C94.6325 105.786 92.4392 106.167 91.2419 106.623C91.1248 106.668 90.9552 106.939 91.0712 106.957C92.0748 107.11 93.7516 106.386 95.2905 106.857C95.3966 106.889 95.5507 107.018 95.4804 107.117C95.1472 107.587 93.222 107.57 92.0333 108.417C91.9366 108.486 92.0064 108.709 92.1145 108.727C93.2295 108.907 94.8963 108.311 96.0757 108.218C96.9022 108.152 97.7184 108.212 98.531 108.26C98.957 108.286 99.3602 108.409 99.7853 108.439C100.479 108.488 102.101 108.306 102.46 108.41C102.931 108.545 103.262 108.925 103.651 109.199C105.103 110.224 104.312 110.1 103.152 111.42C102.317 112.369 102.845 112.372 101.413 112.942C101.044 113.089 99.4717 113.654 99.152 113.567C98.5604 113.405 97.1726 111.815 93.3881 110.912C92.6003 110.724 91.7676 110.674 90.9627 110.537C90.4819 110.456 90.0211 110.306 89.5313 110.259C88.1962 110.132 87.2688 110.26 85.764 110.022C85.3739 109.961 85.0194 109.769 84.6164 109.767C84.1865 109.766 82.2028 109.951 81.9009 110.348C81.7851 110.501 81.993 110.737 82.1612 110.784C82.6376 110.919 83.1933 110.772 83.6885 110.853C84.0386 110.91 84.3194 111.154 84.674 111.195C85.4588 111.287 86.2832 111.182 87.0739 111.249C87.3857 111.276 87.6618 111.418 87.9655 111.475C88.5685 111.587 89.1764 111.685 89.7916 111.754C90.3528 111.817 90.9315 111.802 91.4918 111.869C92.724 112.016 93.9994 112.224 95.1331 112.648C95.7578 112.881 97.6535 113.842 98.1623 114.23C98.8236 114.735 98.3545 114.912 98.1005 115.221C97.5953 115.834 97.0461 116.668 96.2981 117.001C95.8745 117.19 95.3991 117.075 94.9627 117.219C94.6609 117.318 94.4368 117.671 94.1287 117.715C93.8183 117.76 92.3207 117.153 91.6307 117.138C91.2237 117.129 89.8242 117.604 89.4613 117.852C89.3806 117.908 89.4313 118.076 89.5105 118.114C90.3058 118.493 91.8199 118.046 92.4948 118.429C93.122 118.785 92.3479 119.581 91.9359 119.901C91.291 120.402 90.5264 120.711 89.837 121.144C89.2021 121.543 88.613 122.023 87.9642 122.395C86.7606 123.087 84.6312 124.089 83.3417 124.506C78.1429 126.189 79.3424 124.463 76.6841 125.131C75.365 125.462 75.4479 126.121 75.0267 126.257C74.6442 126.38 74.2615 126.202 73.8898 126.136C73.0308 125.982 72.1904 125.772 71.3385 125.597C70.5762 125.44 69.7824 125.367 69.0474 125.14C68.1967 124.878 66.7924 123.897 66.319 123.795C65.4627 123.612 64.2674 124.157 66.349 125.229C66.9112 125.518 67.5697 125.633 68.1493 125.894C68.5566 126.077 68.9144 126.339 69.3014 126.555C69.4847 126.658 69.7477 126.674 69.8603 126.849C70.2312 127.424 67.6056 127.833 66.8781 127.62C66.0516 127.378 64.9135 126.212 64.267 125.626C63.86 125.258 63.4028 124.936 63.0511 124.516C62.8165 124.236 62.24 122.934 61.9332 122.87C61.7546 122.832 61.4601 122.911 61.3871 123.09C61.1917 123.569 61.6379 125.101 61.8863 125.46C62.46 126.289 65.2368 126.934 64.777 127.777C64.6775 127.959 64.5039 128.173 64.3034 128.2C62.3058 128.46 60.856 126.26 59.8214 125.012C58.9904 124.009 58.3985 123.567 58.2854 122.011C58.2175 121.078 58.7953 119.775 58.2681 118.972C57.8385 118.318 57.3413 118.45 57.1375 119.284C57.0439 119.668 57.1053 122.121 57.1697 122.51C57.7654 126.101 59.802 126.438 60.4317 127.359C60.6911 127.739 60.2922 128.091 59.8707 128.099C59.2734 128.11 58.7156 127.921 58.1321 127.856C56.8098 127.707 54.5704 127.498 53.2834 127.486C52.0552 127.475 51.5795 127.872 50.1455 127.366C48.81 126.895 47.6127 126.121 46.6428 125.146C45.9834 124.484 45.5237 123.348 44.616 122.708C44.0348 122.297 42.9785 122.294 42.4103 121.908C42.0799 121.684 41.9414 121.259 41.6338 121.007C41.3413 120.767 40.9649 120.636 40.6312 120.451C40.3458 120.292 40.1198 119.985 39.7758 119.973C38.4837 119.929 35.4422 120.694 33.9608 120.915C33.6862 120.956 33.3453 121.074 33.1438 120.918C32.9925 120.802 32.993 120.421 33.18 120.313C33.7971 119.958 34.5152 119.887 35.1915 119.74C36.4381 119.468 37.69 119.193 38.9416 119.056C40.7983 118.853 42.3835 119.97 44.6414 118.79C45.9845 118.089 47.3913 115.774 48.0201 115.575C48.7066 115.357 51.0853 115.022 51.463 114.574C51.9228 114.028 52.139 113.339 52.4995 112.732C53.0086 111.876 53.4913 111.002 54.0715 110.184C54.5836 109.462 55.2169 108.823 55.7673 108.127C56.0875 107.722 56.3622 107.286 56.6824 106.881C56.977 106.508 57.3009 106.157 57.6102 105.795ZM46.5829 118.587C46.6685 118.287 47.0802 118.116 47.3856 118.036C49.0849 117.591 50.8119 117.413 52.5191 117.032C55.3223 116.407 58.1207 115.729 60.9141 115.019C63.5369 114.352 66.1647 113.7 68.766 112.902C70.3449 112.418 71.8866 111.766 73.4408 111.175C81.8447 107.983 85.6274 106.487 93.7518 102.136C97.4609 100.149 101.043 98.0166 104.45 95.4864C105.765 94.5101 106.909 93.3133 108.207 92.3146C108.915 91.7704 109.748 91.4156 110.454 90.8685C112.168 89.5395 114.301 87.3445 116.174 86.0508C116.64 85.7289 116.857 86.356 116.579 86.6554C115.676 87.6269 110.786 91.5218 109.56 92.5112C106.414 95.051 103.248 97.6015 99.8465 99.7757C95.37 102.637 85.2523 107.761 80.2945 109.949C78.4714 110.754 76.5967 111.4 74.7698 112.193C73.4228 112.778 72.1596 113.628 70.7763 114.081C69.3544 114.547 67.8745 114.582 66.4322 114.924C64.4611 115.393 62.5153 116.054 60.5432 116.512C57.482 117.224 54.4101 117.835 51.3387 118.433C49.9187 118.709 48.488 119.085 47.072 119.131C46.809 119.14 46.5094 118.843 46.5829 118.587Z" fill="white"/>
<path id="path7" fill-rule="evenodd" clip-rule="evenodd" d="M156.246 42.8924C157.174 43.3116 157.994 43.9824 158.627 44.8494C160.572 47.5127 160.137 50.2717 159.239 53.2265C158.335 56.2014 157.331 59.1464 156.229 62.0495C155.254 64.6161 154.207 67.196 152.883 69.5952C151.859 71.4518 150.537 73.1304 148.818 74.3458C147.116 75.6692 144.973 76.3803 142.843 76.0633C140.551 75.8837 138.551 74.7415 136.906 73.1268C136.572 72.7981 136.262 72.4462 135.976 72.0752C135.501 71.7658 135.048 71.4156 134.616 71.0325C133.032 73.6483 130.947 76.2861 127.986 76.8531C126.711 77.097 125.439 76.986 124.228 76.5078C122.673 75.8943 121.379 74.7522 120.294 73.3829C119.327 72.792 118.475 71.9931 117.72 71.0809L117.601 71.3119C115.678 75.0215 112.603 79.7964 108.3 80.62C104.655 81.3171 101.524 79.648 99.427 76.936C98.7992 76.545 98.2134 76.0768 97.6759 75.5461C97.4935 76.8152 97.2955 78.0818 97.0785 79.3451C96.3184 83.7736 94.8235 89.5317 89.7947 90.4939C88.848 90.675 87.8766 90.639 86.9458 90.3849C85.1633 89.8983 83.8751 88.7842 82.9342 87.367C82.0203 86.9062 81.2665 86.2542 80.6423 85.4782C79.8762 86.4772 78.9891 87.3713 77.9594 88.0991C76.2575 89.4224 74.1148 90.1334 71.9841 89.8164C69.6923 89.6367 67.6925 88.4947 66.0477 86.8797C65.7128 86.5511 65.4036 86.1992 65.1178 85.8283C64.643 85.519 64.1894 85.1687 63.758 84.7856C62.1734 87.4017 60.0888 90.0396 57.1271 90.6061C54.3306 91.1414 52.0209 89.8824 50.2018 87.9721C48.613 91.1737 46.87 94.285 45.0129 97.3361C43.1583 100.383 41.0633 103.353 38.6652 105.972C34.7714 110.224 29.6583 113.94 23.7261 113.607C22.8887 113.56 22.0538 113.463 21.227 113.317L21.0729 113.29L20.9197 113.253C17.1354 112.35 13.9085 109.99 11.215 107.179C10.0637 106.264 8.99012 105.238 7.99279 104.155C1.20285 96.781 -0.224443 83.0474 0.0268301 73.2988C0.281338 63.4359 1.79041 53.0466 4.5526 43.5955C7.59389 33.1892 12.1944 22.1586 17.9171 13.0172C19.3029 10.8033 20.8362 8.66407 22.5529 6.7091C25.6615 3.16939 29.8335 -0.221996 34.7308 0.0113888C38.1706 0.175303 41.1231 1.93649 43.5499 4.35289C43.8021 4.60416 44.0435 4.86176 44.2744 5.12568C44.9925 5.65734 45.6742 6.25301 46.3189 6.89482C48.6101 9.17643 50.0084 11.9909 50.641 15.1972C51.3993 19.0813 51.5079 23.2518 51.6372 27.2071C51.6773 28.4326 51.6437 29.6892 51.5481 30.9645C55.043 26.5814 59.3779 22.5016 63.3859 21.7347C66.8514 21.0714 70.3068 22.8239 72.4369 25.5965C73.5608 26.31 74.5585 27.2499 75.3549 28.3363C76.7497 30.2395 77.4722 32.4863 77.4555 34.7538C77.973 33.6011 78.4275 32.3669 78.8621 31.2764C80.1088 28.1487 81.2625 24.9816 82.3432 21.7892C82.5181 21.2722 82.6748 20.7488 82.8153 20.2209L82.8997 19.904L83.0196 19.599C83.2941 18.9019 83.5458 18.1952 83.7705 17.4796L84.8262 13.6426C85.7355 10.0976 87.2346 8.21726 90.8654 7.52289C94.2546 6.87497 97.4219 7.83185 99.3261 10.7343C100.645 11.4208 101.765 12.5278 102.571 14.0938C102.981 14.8908 103.264 15.7208 103.447 16.5718C103.505 16.559 103.564 16.5469 103.624 16.5356C104.267 16.4126 104.684 16.3935 105.335 16.4578C107.552 16.6771 109.095 17.9221 110.203 19.5852C112.668 20.7887 113.992 23.5631 114.817 26.2736C115.032 26.98 115.218 27.6933 115.39 28.4105C115.881 27.3871 116.408 26.3615 116.972 25.3261C120.12 19.5429 127.628 9.24764 134.244 7.98159C137.71 7.31829 141.165 9.07075 143.295 11.8433C144.419 12.5568 145.417 13.4967 146.213 14.5832C148.326 17.4655 148.896 21.1366 147.692 24.4733C148.716 26.2989 149.6 28.0831 150.066 30.202C150.622 32.7343 149.832 37.4116 149.448 40.1291C149.87 39.9925 150.316 39.904 150.786 39.8701C152.789 39.726 154.659 40.6648 155.858 42.3075C156 42.5019 156.129 42.6968 156.246 42.8924ZM23.6789 70.1326C23.3197 69.9188 22.9754 69.6733 22.6462 69.4025C22.3423 73.7986 22.447 77.9071 23.1239 81.3755C23.4433 83.0122 24.1012 86.0244 25.0067 87.8178C25.1381 87.82 25.2768 87.8102 25.4238 87.7844C30.3511 86.9292 35.8157 76.6586 37.8713 72.4153C38.3639 71.3982 38.8395 70.3723 39.3136 69.3459C39.5343 68.8681 39.7652 68.3943 39.9838 67.9152C39.831 67.1065 39.6922 66.2995 39.6012 65.4775C37.3543 69.101 34.3451 72.8892 30.7765 73.5084C27.8092 74.0232 25.4229 72.3767 23.6789 70.1326ZM78.5892 53.8823C78.9111 53.7781 79.2473 53.7018 79.5974 53.6565C79.6938 53.3126 79.7935 52.9693 79.8959 52.6271L78.9221 51.5696C78.8041 52.419 78.6843 53.2105 78.5892 53.8823Z" fill="#004293"/>
<path id="path9" fill-rule="evenodd" clip-rule="evenodd" d="M81.0041 55.559C81.5874 53.2763 82.287 51.0927 83.0798 49.0796C83.339 48.4213 83.6229 47.7665 83.9433 47.1338L84.0694 45.777C83.2212 46.9449 82.2865 48.0588 80.7929 48.3451L78.4339 48.7962L77.0802 47.3267C76.042 46.1994 75.5185 44.8615 75.7276 43.318C75.9127 41.3526 77.1494 39.1575 78.1233 37.5334C79.0315 36.0194 79.9056 33.681 80.5667 32.0232C81.8243 28.8695 82.9931 25.6633 84.0831 22.4445C84.2715 21.888 84.4403 21.3245 84.5917 20.7562L84.648 20.5448L84.7279 20.3417C85.0229 19.5925 85.2931 18.8329 85.5339 18.0634L86.6031 14.1789C87.3187 11.3801 88.2539 9.97019 91.2275 9.40174C94.1322 8.84659 96.7863 9.65402 98.2357 12.4698C100.033 15.9607 98.8454 20.6196 98.0072 24.2705C97.5413 26.3008 97.3494 28.732 97.1685 30.8095C96.9918 32.8365 96.8477 34.8702 96.7234 36.9054C97.154 33.7591 97.5965 30.6294 98.3411 27.512C99.138 24.1761 100.062 19.1625 103.988 18.4114C104.522 18.3093 104.661 18.3037 105.195 18.3565C108.222 18.6556 109.564 21.7329 110.356 24.3306C110.732 25.5671 111.01 26.8063 111.287 28.0675C112.13 31.9005 112.165 32.7238 110.68 36.2377C109.911 38.0833 109.269 40.6993 108.784 42.6723C108.097 45.466 107.409 49.3907 107.726 52.4984L107.886 53.2254C108.157 52.8791 108.404 52.5238 108.555 52.3012C108.724 52.0527 108.85 51.7603 108.964 51.4822C109.345 50.5569 109.664 49.7048 110.169 48.8297L110.406 48.4203C110.484 48.2503 110.562 48.0796 110.648 47.9118C111.054 47.1148 111.569 46.4018 112.22 45.8821C112.281 45.1634 112.372 44.4415 112.492 43.7155C113.574 37.1845 115.458 32.0212 118.585 26.2783C121.438 21.0403 128.689 10.9929 134.612 9.86018C137.477 9.31212 140.339 10.892 142.038 13.2093C143.944 15.8085 144.332 19.1483 142.95 22.0832C142.947 22.0914 142.943 22.0997 142.941 22.1079C144.032 24.0091 145.073 25.8496 145.57 28.1114C146.035 30.2254 145.224 35.231 144.91 37.4689C144.565 39.9359 144.156 42.4018 143.829 44.8689C143.691 45.9067 143.643 48.6338 144.108 50.1298C144.241 49.9443 144.37 49.7552 144.494 49.5645C144.895 48.767 145.381 48.0124 145.863 47.2652C146.196 46.7489 146.752 45.9544 146.968 45.3855C147.165 44.8665 146.976 45.2567 147.35 44.4909C148.072 43.0151 149.264 41.8867 150.952 41.7653C152.345 41.665 153.622 42.3278 154.451 43.463C156.003 45.5866 155.483 47.8541 154.783 50.1607C153.894 53.0839 152.897 56.0066 151.814 58.8586C150.882 61.3099 149.843 63.871 148.58 66.1602C147.686 67.7799 146.535 69.2638 145.029 70.3174C143.686 71.3731 141.992 71.9637 140.311 71.6932C138.425 71.5641 136.783 70.5964 135.423 69.2623C133.989 67.8548 133.051 65.8331 132.442 63.6082C132.09 64.3681 131.721 65.1106 131.33 65.8205C129.965 68.2967 127.875 71.9391 124.922 72.5042C120.433 73.3626 117.657 68.1696 116.098 64.6855C115.879 64.1959 115.666 63.6966 115.458 63.1908C114.774 64.8392 114.037 66.4398 113.269 67.9194C111.641 71.0599 108.849 75.5783 105.234 76.2699C100.793 77.1189 97.4212 73.5717 96.2109 69.5195C95.4404 66.9396 95.3089 64.343 95.1195 61.668C94.971 59.5699 95.0505 57.3736 95.1619 55.2746C95.1871 54.799 95.2152 54.3236 95.2456 53.8479L94.8531 57.7816L94.8075 57.7903L94.5409 60.3617C94.0542 65.7396 93.473 71.1828 92.5594 76.5031C91.9556 80.0191 90.7977 85.362 86.7264 86.1406C86.0429 86.2713 85.3437 86.2458 84.6714 86.0623C81.7538 85.2662 80.5731 82.0602 79.9759 79.3434C79.7607 78.3652 79.5865 77.3569 79.451 76.3256C78.9177 77.5561 78.343 78.7664 77.7125 79.9089C76.8188 81.5287 75.6676 83.0126 74.1621 84.0662C72.8192 85.1217 71.1243 85.7122 69.4433 85.4419C67.5574 85.3127 65.9154 84.345 64.5557 83.0108C63.1214 81.6035 62.1839 79.5816 61.5746 77.3568C61.2232 78.1167 60.8538 78.8593 60.4626 79.5693C59.0981 82.0456 57.0083 85.688 54.0548 86.2528C51.1579 86.8071 48.8532 84.7383 47.093 82.0045C45.2369 86.0245 43.1512 89.8572 40.7363 93.8229C36.6582 100.52 29.5937 109.696 21.0792 109.218C20.311 109.174 19.5455 109.086 18.7874 108.952L18.6842 108.934L18.5821 108.909C14.9437 108.041 11.8551 105.631 9.32782 102.888C2.93406 95.9477 1.61944 82.5839 1.8569 73.3738C2.10393 63.8042 3.62715 53.3329 6.30712 44.1675C9.25974 34.0687 13.908 22.9387 19.4611 14.072C20.7887 11.9521 22.275 9.87708 23.9187 8.00602C26.6275 4.92284 30.3855 1.71767 34.6721 1.92187C37.6592 2.06414 40.2164 3.6488 42.3178 5.7403C44.345 7.75788 45.5642 10.2316 46.1243 13.0685C46.8354 16.709 46.9645 21.0582 47.086 24.769C47.3275 32.1578 44.6388 41.0962 42.2253 47.9828C41.0574 51.3405 39.2088 55.0294 37.5202 58.1391C35.6285 61.6229 31.8872 68.4342 27.7311 69.1551C25.1195 69.6079 23.1478 67.7161 21.7927 65.6841C21.0981 64.6426 19.9834 62.6985 19.8088 61.4406L19.7351 60.9092L20.1596 57.8988C21.0559 51.8785 23.1565 45.1525 26.0809 39.8611C26.4733 39.1515 26.2053 39.5779 26.6491 38.954L28.4102 36.479L30.2943 37.3898C31.1072 36.1993 31.9557 33.5593 32.2191 32.6078C33.4492 28.1628 34.3451 22.3341 33.5067 17.725C32.2148 19.3419 30.8808 21.6143 30.4199 22.4574C29.0667 24.9322 27.8778 27.5513 26.8184 30.1734C21.6976 42.8491 15.9532 65.6495 18.6037 79.2246C19.0379 81.4487 19.9321 85.4087 21.3144 87.2367C22.5426 88.8611 23.6708 90.0032 25.7485 89.6428C31.5382 88.6383 37.1338 78.1887 39.5161 73.273C40.0131 72.2474 40.4952 71.2085 40.9734 70.1734C41.2624 69.5481 41.6088 68.8461 41.8981 68.1694C41.7104 67.2039 41.5316 66.2795 41.4199 65.2465C41.1401 62.6591 41.1991 60.0317 41.6246 57.4643C42.7072 50.9331 44.5906 45.7698 47.718 40.0271C50.5706 34.789 57.8218 24.7417 63.7449 23.6089C66.6098 23.0608 69.4717 24.6407 71.1709 26.958C73.0768 29.5572 73.4646 32.897 72.0827 35.8319C72.0737 35.8586 72.0633 35.8852 72.0535 35.9118C73.1201 37.8064 74.2115 39.6248 74.7028 41.8603C75.1674 43.9741 74.3567 48.9797 74.0431 51.2176C73.6974 53.6846 73.2884 56.1506 72.9614 58.6176C72.8238 59.6555 72.7764 62.3825 73.241 63.8785C73.3743 63.693 73.5027 63.504 73.6265 63.3132C74.0282 62.5158 74.5142 61.7613 74.996 61.0141C75.3288 60.4978 75.8846 59.7031 76.1009 59.134C76.2985 58.615 76.1086 59.0053 76.4831 58.2396C77.205 56.7637 78.3973 55.6356 80.0846 55.514C80.3981 55.4914 80.706 55.5076 81.0041 55.559ZM53.3755 65.2782C54.3843 63.712 55.3933 61.5116 56.0523 60.0528C56.4725 59.1225 56.8741 58.1824 57.2521 57.2334C57.75 55.9822 58.1833 54.6994 58.5792 53.4104L58.6166 53.2886L58.662 53.1698C58.9361 52.4523 59.2174 51.7388 59.4085 50.9919C59.5646 50.3821 59.8867 49.2098 60.148 48.0385C58.3601 49.6265 56.8181 52.1398 56.0079 53.8011C54.4204 57.0567 53.1299 61.4266 53.3755 65.2782ZM124.243 51.5295C125.251 49.9634 126.26 47.7628 126.919 46.3039C127.34 45.3737 127.741 44.4336 128.119 43.4846C128.617 42.2334 129.05 40.9506 129.446 39.6617L129.484 39.5399L129.529 39.421C129.803 38.7036 130.084 37.99 130.276 37.2432C130.432 36.6335 130.754 35.4611 131.015 34.2897C129.227 35.8777 127.685 38.391 126.875 40.0524C125.287 43.3079 123.997 47.6778 124.243 51.5295Z" fill="white"/>
<path id="path11" fill-rule="evenodd" clip-rule="evenodd" d="M29.6094 41.119C32.925 42.7219 35.0675 36.022 35.7403 33.5904C37.164 28.4454 38.0751 21.9621 37.0557 16.7377C36.8422 15.4151 36.5977 11.9821 34.9113 12.2747C30.3717 13.0625 25.5548 23.6559 23.5164 28.7027C18.0673 42.1934 12.3004 65.61 15.0953 79.9277C15.9844 84.4818 17.1188 87.6716 18.4985 89.4964C20.7902 92.5277 23.1389 93.8527 26.3901 93.2887C33.7821 92.0061 39.7366 81.2163 42.795 74.9049C43.0865 74.3031 45.6544 68.8883 45.6838 68.4899C45.7104 68.1286 44.2864 63.7668 45.2326 58.0564C46.2986 51.624 48.0689 47.0394 50.9149 41.8124C53.1952 37.6241 60.0135 28.0811 64.4449 27.2333C67.0868 26.7279 70.6829 30.5385 68.8092 34.2802C68.7199 34.4583 68.6381 34.9191 68.4738 34.9507C68.3766 35.2366 68.0262 35.7657 68.0834 36.103C68.1339 36.4002 70.682 40.2399 71.2106 42.6455C71.592 44.3816 69.7991 55.1666 69.4131 58.0788C69.0863 60.5445 69.1974 64.9781 70.8963 67.0241C72.2275 68.6274 73.7704 68.8758 75.2154 67.2757C75.7546 66.6787 76.2829 65.9712 76.8005 65.1537C77.5118 63.6639 78.9739 61.8684 79.5099 60.4588C79.728 59.8849 80.211 58.708 80.729 59.4173C81.267 60.1539 80.9683 61.2169 80.4986 62.7622C79.3947 66.3948 76.8643 73.9385 74.6033 78.0363C73.8553 79.392 73.0141 80.3839 72.0793 81.0117C71.491 81.4986 70.6556 81.8947 69.8973 81.6986C68.9845 81.6931 68.0493 81.2213 67.0919 80.2817C64.529 77.7664 64.1595 71.1236 64.1389 67.5757C64.1337 66.7499 64.1192 64.0101 64.2901 63.5049C64.4847 62.6149 64.5338 59.8762 64.531 58.7436C61.4325 68.3181 59.0398 74.6363 57.3529 77.6986C55.6659 80.7608 54.3591 82.3805 53.4327 82.5577C50.7587 83.0693 47.8069 75.264 46.9729 72.8446C44.395 79.8593 41.7468 85.1816 37.709 91.8139C34.4232 97.211 28.1064 105.85 21.3172 105.469C20.6863 105.433 20.0605 105.361 19.44 105.251C16.979 104.664 14.4975 103.012 11.9951 100.295C6.53938 94.3719 5.29508 82.0322 5.51674 73.4404C5.75289 64.2877 7.28887 53.8438 9.81423 45.205C12.5811 35.7404 17.3198 24.3933 22.5439 16.0501C25.0199 12.0956 29.9814 5.38416 34.5447 5.60159C36.4458 5.6922 38.2172 6.76004 39.8415 8.377C41.3323 9.86116 42.1992 11.6551 42.6154 13.7632C43.0394 15.9352 43.3367 19.6322 43.5077 24.8544C43.6782 30.0763 42.1287 37.3534 38.8585 46.6855C37.3362 51.065 30.618 64.8481 27.1699 65.4463C25.6039 65.7179 23.4887 61.2825 23.4328 60.8791L23.7781 58.4287C24.6194 52.7775 26.6431 46.4162 29.2671 41.6671C29.3779 41.4668 29.492 41.2842 29.6094 41.119ZM138.948 22.3521C140.115 24.4759 141.569 26.5937 142.075 28.8945C142.456 30.6307 140.663 41.4156 140.277 44.3279C139.951 46.7936 140.062 51.2272 141.761 53.2732C143.092 54.8765 144.635 55.1249 146.08 53.5248C146.619 52.9278 147.147 52.2203 147.665 51.4028C148.376 49.913 149.838 48.1175 150.374 46.7079C150.592 46.134 151.075 44.9571 151.593 45.6663C152.131 46.403 151.833 47.466 151.363 49.0113C150.259 52.6439 147.729 60.1875 145.468 64.2854C144.72 65.6411 143.879 66.633 142.944 67.2608C142.355 67.7477 141.52 68.1438 140.762 67.9477C139.849 67.9427 138.914 67.4704 137.956 66.5307C135.393 64.0154 135.024 57.3727 135.003 53.8248C134.998 52.9988 134.983 50.2591 135.154 49.7539C135.349 48.864 135.398 46.1253 135.395 44.9925C132.297 54.5672 129.904 60.8854 128.217 63.9477C126.53 67.0099 125.223 68.6295 124.297 68.8068C121.291 69.3819 117.95 59.6615 117.136 56.9058C115.887 52.6773 115.391 48.565 116.097 44.3055C117.163 37.8731 118.933 33.2885 121.779 28.0615C124.06 23.8732 130.878 14.3302 135.309 13.4824C137.951 12.9769 141.547 16.7876 139.674 20.5293C139.584 20.7074 139.502 21.1681 139.338 21.1996C139.167 21.7009 139.067 21.6298 138.948 22.3521ZM121.009 54.2115C121.232 55.2245 121.456 55.7161 121.949 56.6587C122.53 57.7691 122.809 57.7743 123.609 57.6212C124.025 57.5416 125.464 55.9612 126.407 54.7955C127.85 53.0119 130.025 48.5775 131.505 44.861C131.989 43.6457 132.465 42.2747 132.934 40.7478C133.269 39.8696 133.572 39.0952 133.812 38.1547C134.254 36.4284 135.981 30.5853 134.401 29.4867C133.9 29.1378 133.481 29.0566 132.961 29.1559C128.93 29.9252 125.543 34.5141 123.676 38.3422C121.406 42.9994 119.888 49.1111 121.009 54.2115ZM87.5131 48.2239L89.2567 29.4325C88.329 31.7877 87.2863 33.7043 86.0775 35.8341C85.5816 36.6996 80.9147 44.501 80.1695 44.6438L79.745 44.7251C79.4629 44.4188 79.2807 44.1623 79.3632 43.7202C79.3987 42.905 80.0247 41.4828 81.2415 39.4538C82.4173 37.4931 85.1983 30.5451 87.5391 23.6308C87.7504 23.0066 87.9444 22.3632 88.1206 21.7009C88.4648 20.8266 88.7705 19.9597 89.0374 19.1003L90.1334 15.1182C90.5135 13.6204 90.4849 13.2995 91.9259 13.0241C93.4432 12.7339 94.4576 12.9743 95.0747 14.1732C96.1856 16.3318 95.2828 20.0578 94.5219 23.373C93.8643 26.2382 93.2933 32.792 92.8088 43.0344C94.4204 42.1188 97.9939 40.9689 99.7776 41.4317C100.433 37.0414 100.831 32.8115 101.894 28.3625C102.319 26.581 103.125 22.3339 104.687 22.035C106.329 21.7207 107.467 27.3664 107.793 28.8507C108.562 32.3456 108.408 32.3211 107.394 34.7205C106.752 36.2597 105.732 40.0105 105.312 41.7203C104.358 45.601 103.587 50.7056 104.431 54.5533C104.45 54.6397 104.485 54.6777 104.537 54.6679C105.112 57.2824 106.648 58.6564 108.827 57.3502C109.903 56.7051 110.85 55.4448 111.558 54.4027C112.366 53.214 112.562 52.0088 113.318 50.6977C113.552 50.6528 114.297 47.8885 115.105 48.9413C115.977 50.0783 115.328 52.2203 114.819 54.0483C113.803 57.6985 111.957 62.5736 110.113 66.1309C109.017 68.2455 106.667 72.1793 104.61 72.573C102.063 73.0601 100.358 70.5678 99.7084 68.3908C99.1237 66.433 99.0117 64.8153 98.7673 61.3628C98.5634 58.4826 98.8295 53.4692 99.5653 46.3226C98.4361 46.088 96.4502 47.0398 95.5099 47.6374C94.8136 48.1297 94.1362 48.7084 93.4778 49.3734C92.8194 50.0381 92.2829 50.7695 91.8682 51.5674L91.5668 54.5891C91.4716 54.6072 91.5156 54.6885 91.518 54.7331L90.9763 59.9565C90.3979 66.3545 89.7499 71.6431 89.0325 75.8222C88.315 80.0013 87.3387 82.2091 86.1034 82.4453C84.5853 82.7356 83.8071 79.6833 83.5444 78.4888C81.6338 69.8003 83.3326 58.4189 86.4724 50.4439C86.8166 49.5696 87.1636 48.8297 87.5131 48.2239ZM50.145 67.9624C50.3678 68.9755 50.592 69.467 51.0849 70.4097C51.6655 71.52 51.9449 71.5253 52.7446 71.3721C53.1605 71.2925 54.5998 69.7122 55.5427 68.5464C56.9858 66.7628 59.1609 62.3284 60.6404 58.612C61.1242 57.3966 61.6007 56.0256 62.0697 54.4987C62.4051 53.6205 62.7072 52.8461 62.9479 51.9057C63.3895 50.1793 65.117 44.3362 63.537 43.2376C63.0352 42.8887 62.6166 42.8076 62.0967 42.9068C58.0658 43.6762 54.6786 48.265 52.812 52.093C50.5412 56.7503 49.0237 62.862 50.145 67.9624Z" fill="#004293"/>
</g>
</svg>
