<svg width="24" height="24" viewBox="0 0 24 24" fill="none" xmlns="http://www.w3.org/2000/svg">
<g id="icon/Phone Calling Rounded">
<path id="Vector" d="M10.4302 6.65303L10.9494 7.58338C11.4179 8.42296 11.2298 9.52435 10.4919 10.2623C10.4919 10.2623 10.4919 10.2623 10.4919 10.2623C10.4917 10.2625 9.59682 11.1576 11.2197 12.7805C12.8419 14.4027 13.737 13.5091 13.7379 13.5083C13.7379 13.5083 13.7379 13.5083 13.7379 13.5083C14.4759 12.7703 15.5772 12.5823 16.4168 13.0508L17.3472 13.57C18.6149 14.2776 18.7647 16.0555 17.6503 17.1699C16.9807 17.8395 16.1604 18.3605 15.2536 18.3949C13.7271 18.4527 11.1347 18.0664 8.53426 15.4659C5.9338 12.8655 5.54747 10.2731 5.60534 8.74657C5.63972 7.83978 6.16074 7.01949 6.83034 6.34988C7.9447 5.23552 9.72264 5.38525 10.4302 6.65303Z" fill="#004293"/>
<g id="Vector_2">
<path d="M13.0076 3.90401C13.0605 3.5769 13.3698 3.355 13.6969 3.40796C13.7171 3.41183 13.7823 3.42401 13.8164 3.43161C13.8847 3.44681 13.9799 3.47022 14.0986 3.5048C14.3361 3.57396 14.6677 3.68788 15.0658 3.87039C15.8629 4.23579 16.9235 4.875 18.0241 5.97564C19.1248 7.07628 19.764 8.13693 20.1294 8.93395C20.3119 9.33204 20.4258 9.66372 20.495 9.90115C20.5296 10.0199 20.553 10.1151 20.5682 10.1834C20.5758 10.2175 20.5813 10.2449 20.5852 10.2651L20.5898 10.2901C20.6428 10.6172 20.4229 10.9392 20.0958 10.9922C19.7696 11.045 19.4623 10.8242 19.4081 10.4986C19.4064 10.4899 19.4018 10.4664 19.3969 10.4442C19.387 10.3999 19.3699 10.3296 19.3429 10.2367C19.2887 10.0509 19.1947 9.77459 19.0386 9.43405C18.7267 8.7538 18.1659 7.81445 17.1756 6.82417C16.1853 5.83388 15.246 5.27308 14.5657 4.96121C14.2252 4.80509 13.9489 4.71106 13.7631 4.65692C13.6701 4.62986 13.5533 4.60305 13.509 4.59318C13.1834 4.53893 12.9548 4.23019 13.0076 3.90401Z" fill="#1C274C"/>
<path fill-rule="evenodd" clip-rule="evenodd" d="M13.1886 6.66358C13.2796 6.34496 13.6117 6.16047 13.9303 6.2515L13.7655 6.82842C13.9303 6.2515 13.9303 6.2515 13.9303 6.2515L13.9315 6.25183L13.9327 6.25219L13.9354 6.25297L13.9416 6.25482L13.9574 6.25975C13.9695 6.26361 13.9845 6.26863 14.0025 6.275C14.0384 6.28775 14.0859 6.30588 14.1442 6.33085C14.2607 6.3808 14.42 6.45793 14.6156 6.5737C15.0071 6.80545 15.5417 7.19039 16.1697 7.81837C16.7976 8.44634 17.1826 8.98089 17.4143 9.37246C17.5301 9.56807 17.6072 9.72732 17.6572 9.84387C17.6821 9.90212 17.7003 9.9496 17.713 9.98553C17.7194 10.0035 17.7244 10.0186 17.7283 10.0306L17.7332 10.0464L17.7351 10.0527L17.7358 10.0553L17.7362 10.0565C17.7362 10.0565 17.7365 10.0577 17.1596 10.2225L17.7365 10.0577C17.8276 10.3763 17.6431 10.7084 17.3244 10.7994C17.0085 10.8897 16.6794 10.7091 16.5851 10.3954L16.5821 10.3868C16.5779 10.3748 16.569 10.3511 16.5542 10.3166C16.5246 10.2475 16.4709 10.1345 16.3816 9.98365C16.2033 9.68226 15.8811 9.22686 15.3211 8.66689C14.7612 8.10693 14.3058 7.78477 14.0044 7.60639C13.8535 7.5171 13.7405 7.46342 13.6715 7.43382C13.6369 7.41901 13.6132 7.41018 13.6012 7.40592L13.5926 7.40296C13.2789 7.30866 13.0983 6.9795 13.1886 6.66358Z" fill="#1C274C"/>
</g>
</g>
</svg>
