<svg width="64" height="64" viewBox="0 0 64 64" fill="none" xmlns="http://www.w3.org/2000/svg">
<g filter="url(#filter0_d_2_58)">
<rect x="4" y="2" width="56" height="56" rx="28" fill="white" shape-rendering="crispEdges"/>
<path d="M29.5579 21.6823L30.3655 23.1295C31.0944 24.4356 30.8018 26.1488 29.6539 27.2968C29.6538 27.2968 29.6538 27.2968 29.6538 27.2968C29.6537 27.2969 28.2615 28.6894 30.7861 31.2139C33.3099 33.7378 34.7024 32.3469 34.7032 32.3461C34.7032 32.3461 34.7032 32.3461 34.7032 32.3461C35.8512 31.1982 37.5644 30.9056 38.8704 31.6344L40.3176 32.4421C42.2898 33.5427 42.5227 36.3084 40.7892 38.0418C39.7476 39.0834 38.4716 39.8939 37.061 39.9474C34.6865 40.0374 30.6538 39.4365 26.6087 35.3913C22.5635 31.3461 21.9626 27.3135 22.0526 24.9389C22.1061 23.5284 22.9165 22.2524 23.9581 21.2108C25.6916 19.4773 28.4573 19.7102 29.5579 21.6823Z" fill="#004293"/>
<path d="M33.5675 17.4063C33.6499 16.8975 34.1309 16.5523 34.6397 16.6347C34.6712 16.6407 34.7726 16.6597 34.8257 16.6715C34.9318 16.6952 35.08 16.7316 35.2646 16.7854C35.634 16.8929 36.1499 17.0701 36.7692 17.354C38.009 17.9225 39.6589 18.9168 41.371 20.6289C43.0831 22.341 44.0774 23.9909 44.6458 25.2307C44.9297 25.85 45.1069 26.3659 45.2145 26.7352C45.2683 26.9199 45.3047 27.068 45.3284 27.1742C45.3402 27.2273 45.3488 27.27 45.3549 27.3015L45.362 27.3403C45.4444 27.8491 45.1024 28.35 44.5935 28.4324C44.0861 28.5145 43.6081 28.171 43.5237 27.6646C43.5211 27.651 43.514 27.6145 43.5063 27.58C43.491 27.5111 43.4644 27.4018 43.4223 27.2572C43.3381 26.9681 43.1918 26.5384 42.949 26.0086C42.4639 24.9505 41.5915 23.4893 40.0511 21.9488C38.5106 20.4084 37.0494 19.536 35.9912 19.0509C35.4615 18.808 35.0318 18.6618 34.7426 18.5775C34.5981 18.5354 34.4164 18.4937 34.3475 18.4784C33.841 18.394 33.4853 17.9137 33.5675 17.4063Z" fill="white"/>
<path fill-rule="evenodd" clip-rule="evenodd" d="M33.849 21.699C33.9906 21.2034 34.5072 20.9164 35.0029 21.058L34.7464 21.9554C35.0029 21.058 35.0029 21.058 35.0029 21.058L35.0046 21.0585L35.0066 21.0591L35.0107 21.0603L35.0203 21.0632L35.045 21.0708C35.0637 21.0768 35.0872 21.0846 35.1151 21.0946C35.171 21.1144 35.2449 21.1426 35.3355 21.1814C35.5168 21.2591 35.7645 21.3791 36.0688 21.5592C36.6779 21.9197 37.5094 22.5185 38.4863 23.4953C39.4631 24.4722 40.0619 25.3037 40.4224 25.9128C40.6025 26.2171 40.7225 26.4648 40.8002 26.6461C40.839 26.7367 40.8672 26.8106 40.887 26.8665C40.897 26.8944 40.9048 26.9179 40.9108 26.9366L40.9184 26.9613L40.9213 26.9709L40.9225 26.975L40.9231 26.977C40.9231 26.977 40.9236 26.9787 40.0262 27.2352L40.9236 26.9787C41.0652 27.4744 40.7782 27.991 40.2826 28.1326C39.7912 28.273 39.2791 27.992 39.1324 27.5041L39.1278 27.4907C39.1212 27.472 39.1075 27.4352 39.0844 27.3814C39.0384 27.274 38.9549 27.0983 38.816 26.8636C38.5385 26.3947 38.0374 25.6863 37.1663 24.8153C36.2953 23.9442 35.5869 23.4431 35.118 23.1656C34.8833 23.0267 34.7076 22.9432 34.6002 22.8972C34.5464 22.8741 34.5096 22.8604 34.4909 22.8538L34.4775 22.8492C33.9896 22.7025 33.7086 22.1904 33.849 21.699Z" fill="white"/>
</g>
<defs>
<filter id="filter0_d_2_58" x="0" y="0" width="64" height="64" filterUnits="userSpaceOnUse" color-interpolation-filters="sRGB">
<feFlood flood-opacity="0" result="BackgroundImageFix"/>
<feColorMatrix in="SourceAlpha" type="matrix" values="0 0 0 0 0 0 0 0 0 0 0 0 0 0 0 0 0 0 127 0" result="hardAlpha"/>
<feOffset dy="2"/>
<feGaussianBlur stdDeviation="2"/>
<feComposite in2="hardAlpha" operator="out"/>
<feColorMatrix type="matrix" values="0 0 0 0 0 0 0 0 0 0 0 0 0 0 0 0 0 0 0.1 0"/>
<feBlend mode="normal" in2="BackgroundImageFix" result="effect1_dropShadow_2_58"/>
<feBlend mode="normal" in="SourceGraphic" in2="effect1_dropShadow_2_58" result="shape"/>
</filter>
</defs>
</svg>
