<svg width="25" height="37" viewBox="0 0 25 37" fill="none" xmlns="http://www.w3.org/2000/svg">
<g opacity="0.75">
<path opacity="0.3" fill-rule="evenodd" clip-rule="evenodd" d="M19 3L24.9241 6.49083V26.6512L19 30.4932V3Z" fill="#FC9702"/>
</g>
<g opacity="0.48">
<path opacity="0.45" fill-rule="evenodd" clip-rule="evenodd" d="M0 10.1029L5.99731 7V33.2727L0 29.7527V10.1029Z" fill="#FC9702"/>
</g>
<path fill-rule="evenodd" clip-rule="evenodd" d="M12.4362 20.5714L6.2563 24L0 20.4984V6.85714L12.4362 0L19 3.53371V10.4639L12.4362 6.85714L6.2563 10.3588V17.1429L12.4362 20.5714Z" fill="url(#paint0_linear_207_1888)"/>
<path fill-rule="evenodd" clip-rule="evenodd" d="M12.5662 15.6145L18.7449 12L25 15.6145V29.8464L12.5662 37L6 33.2769V26.1233L12.6426 29.9218L18.7449 26.2318V19.1536L12.5662 15.6145Z" fill="url(#paint1_linear_207_1888)"/>
<defs>
<linearGradient id="paint0_linear_207_1888" x1="0" y1="24" x2="19" y2="24" gradientUnits="userSpaceOnUse">
<stop stop-color="#FF6B39"/>
<stop offset="0.35" stop-color="#FF8124"/>
<stop offset="0.78" stop-color="#FC9700"/>
<stop offset="1" stop-color="#FFAA00"/>
</linearGradient>
<linearGradient id="paint1_linear_207_1888" x1="6" y1="37" x2="25" y2="37" gradientUnits="userSpaceOnUse">
<stop stop-color="#FF6A37"/>
<stop offset="0.295069" stop-color="#FC7614"/>
<stop offset="0.78" stop-color="#FC9700"/>
<stop offset="1" stop-color="#FFAA00"/>
</linearGradient>
</defs>
</svg>
