<svg width="24" height="24" viewBox="0 0 24 24" fill="none" xmlns="http://www.w3.org/2000/svg">
<path fill-rule="evenodd" clip-rule="evenodd" d="M12.5002 1.73495C11.375 1.73495 10.4154 2.45788 10.0597 3.46983C9.90099 3.92154 9.40823 4.15829 8.95911 3.99864C8.50999 3.83898 8.27459 3.34337 8.43333 2.89166C9.02494 1.20821 10.6212 0 12.5002 0C14.3793 0 15.9755 1.20821 16.5671 2.89166C16.7258 3.34337 16.4905 3.83898 16.0413 3.99864C15.5922 4.15829 15.0995 3.92154 14.9407 3.46983C14.5851 2.45788 13.6255 1.73495 12.5002 1.73495Z" fill="#004293"/>
<path d="M14.8 13.0121H10.2C9.88244 13.0121 9.625 13.2711 9.625 13.5905V16.0905C9.625 16.327 9.76815 16.5396 9.98645 16.6275L10.7916 16.9514C11.8883 17.3926 13.1117 17.3926 14.2084 16.9514L15.0135 16.6275C15.2319 16.5396 15.375 16.327 15.375 16.0905V13.5905C15.375 13.2711 15.1176 13.0121 14.8 13.0121Z" fill="#004293"/>
<path d="M7.91238 16.3307L2.15674 14.594C2.19134 18.1964 2.40057 21.514 3.6656 22.6449C5.18132 24 7.62084 24 12.4999 24C17.3789 24 19.8184 24 21.3342 22.6449C22.5992 21.514 22.8084 18.1964 22.843 14.5941L17.0876 16.3306C17 17.1781 16.4528 17.917 15.6542 18.2383L14.849 18.5622C13.3411 19.1689 11.6589 19.1689 10.151 18.5622L9.3458 18.2383C8.54722 17.9171 8.00007 17.1782 7.91238 16.3307Z" fill="#004293"/>
<path d="M7.45027 4.33738H17.5497C20.3674 4.33738 21.7762 4.33738 22.7274 5.11578C22.9102 5.26538 23.0773 5.43344 23.2261 5.61731C24 6.57396 24 7.99093 24 10.8249C24 11.544 24 11.9035 23.8266 12.184C23.7928 12.2386 23.7546 12.2903 23.7123 12.3386C23.495 12.5862 23.1526 12.6895 22.4677 12.8962L17.1 14.5158V13.5905C17.1 12.3129 16.0703 11.2772 14.8 11.2772H10.2C8.92975 11.2772 7.9 12.3129 7.9 13.5905V14.5158L2.53226 12.8962C1.84744 12.6895 1.50502 12.5862 1.28774 12.3386C1.24542 12.2903 1.20717 12.2386 1.17339 12.184C1 11.9035 1 11.544 1 10.8249C1 7.99093 1 6.57396 1.77393 5.61731C1.92268 5.43344 2.08977 5.26538 2.27258 5.11578C3.22375 4.33738 4.63259 4.33738 7.45027 4.33738Z" fill="#004293"/>
</svg>
