<svg width="24" height="24" viewBox="0 0 24 24" fill="none" xmlns="http://www.w3.org/2000/svg">
<g clip-path="url(#clip0_84_1696)">
<path d="M5.11183 23.2657H4.79991C3.66853 23.2657 3.10285 23.2657 2.75137 22.9143C2.3999 22.5628 2.3999 21.9971 2.3999 20.8657V19.5314C2.3999 18.9092 2.3999 18.5981 2.55972 18.3203C2.71953 18.0424 2.96063 17.9022 3.44283 17.6218C6.61739 15.7754 11.1258 14.736 14.1348 16.5307C14.337 16.6513 14.5188 16.7969 14.6742 16.9714C15.3439 17.7237 15.2951 18.859 14.5232 19.5327C14.3602 19.6749 14.1865 19.7828 14.0115 19.8203C14.1553 19.8037 14.2931 19.7845 14.4246 19.7636C15.5183 19.5891 16.4364 19.0047 17.2768 18.3698L19.4455 16.7316C20.21 16.1541 21.3447 16.1539 22.1094 16.7313C22.7977 17.2511 23.0082 18.107 22.573 18.8046C22.0655 19.6181 21.3504 20.6588 20.6638 21.2948C19.9762 21.9316 18.9526 22.5002 18.1169 22.9035C17.1912 23.3503 16.1685 23.6078 15.1283 23.7762C13.0185 24.1177 10.8198 24.0656 8.7315 23.6353C7.55095 23.3921 6.32486 23.2657 5.11183 23.2657Z" fill="#004293"/>
<path d="M10.6335 1.63602C11.2415 0.545341 11.5455 0 12 0C12.4545 0 12.7585 0.54534 13.3665 1.63602L13.5238 1.91819C13.6966 2.22813 13.7829 2.3831 13.9176 2.48535C14.0523 2.5876 14.2201 2.62556 14.5556 2.70147L14.861 2.77058C16.0417 3.03771 16.632 3.17128 16.7725 3.62291C16.9129 4.07455 16.5105 4.54516 15.7056 5.48637L15.4973 5.72987C15.2686 5.99733 15.1543 6.13107 15.1028 6.29651C15.0514 6.46195 15.0686 6.64038 15.1032 6.99723L15.1347 7.32212C15.2564 8.5779 15.3172 9.20579 14.9495 9.48491C14.5819 9.76404 14.0291 9.50955 12.9237 9.00057L12.6377 8.86889C12.3236 8.72425 12.1665 8.65194 12 8.65194C11.8335 8.65194 11.6765 8.72426 11.3623 8.86889L11.0763 9.00057C9.97089 9.50955 9.41817 9.76404 9.05048 9.48491C8.68279 9.20579 8.74363 8.5779 8.86532 7.32212L8.8968 6.99723C8.93138 6.64038 8.94867 6.46195 8.89722 6.29651C8.84578 6.13107 8.73141 5.99733 8.50269 5.72987L8.29446 5.48637C7.48957 4.54516 7.08712 4.07455 7.22757 3.62291C7.36802 3.17128 7.95834 3.03771 9.13899 2.77058L9.44444 2.70147C9.77994 2.62556 9.94769 2.5876 10.0824 2.48535C10.2171 2.3831 10.3035 2.22813 10.4762 1.91819L10.6335 1.63602Z" fill="#004293"/>
<path d="M20.9168 6.81802C21.2208 6.27268 21.3728 6.00001 21.6 6.00001C21.8273 6.00001 21.9793 6.27268 22.2833 6.81802L22.3619 6.9591C22.4483 7.11407 22.4915 7.19156 22.5588 7.24268C22.6262 7.29381 22.7101 7.31278 22.8778 7.35074L23.0305 7.38529C23.6209 7.51886 23.916 7.58564 23.9862 7.81146C24.0565 8.03728 23.8552 8.27259 23.4528 8.74319L23.3487 8.86494C23.2343 8.99867 23.1771 9.06554 23.1514 9.14826C23.1257 9.23098 23.1343 9.3202 23.1516 9.49862L23.1674 9.66106C23.2282 10.289 23.2586 10.6029 23.0748 10.7425C22.8909 10.882 22.6146 10.7548 22.0619 10.5003L21.9189 10.4345C21.7618 10.3621 21.6833 10.326 21.6 10.326C21.5168 10.326 21.4382 10.3621 21.2812 10.4345L21.1382 10.5003C20.5855 10.7548 20.3091 10.882 20.1253 10.7425C19.9414 10.6029 19.9718 10.289 20.0327 9.66107L20.0484 9.49862C20.0657 9.3202 20.0744 9.23098 20.0486 9.14826C20.0229 9.06554 19.9657 8.99867 19.8514 8.86494L19.7472 8.74319C19.3448 8.27259 19.1436 8.03728 19.2138 7.81146C19.284 7.58564 19.5792 7.51886 20.1695 7.38529L20.3222 7.35074C20.49 7.31278 20.5739 7.29381 20.6412 7.24268C20.7086 7.19156 20.7517 7.11407 20.8381 6.9591L20.9168 6.81802Z" fill="#004293"/>
<path d="M1.71676 6.81802C2.02076 6.27268 2.17276 6.00001 2.4 6.00001C2.62725 6.00001 2.77925 6.27268 3.08324 6.81802L3.16189 6.9591C3.24828 7.11407 3.29147 7.19156 3.35882 7.24268C3.42616 7.29381 3.51004 7.31278 3.67779 7.35074L3.83051 7.38529C4.42084 7.51886 4.716 7.58564 4.78622 7.81146C4.85645 8.03728 4.65523 8.27259 4.25278 8.74319L4.14866 8.86494C4.0343 8.99867 3.97712 9.06554 3.9514 9.14826C3.92567 9.23098 3.93432 9.3202 3.95161 9.49862L3.96735 9.66106C4.02819 10.289 4.05862 10.6029 3.87477 10.7425C3.69092 10.882 3.41456 10.7548 2.86184 10.5003L2.71885 10.4345C2.56178 10.3621 2.48325 10.326 2.4 10.326C2.31676 10.326 2.23822 10.3621 2.08116 10.4345L1.93816 10.5003C1.38544 10.7548 1.10908 10.882 0.925237 10.7425C0.74139 10.6029 0.771812 10.289 0.832656 9.66107L0.848397 9.49862C0.865687 9.3202 0.874332 9.23098 0.848608 9.14826C0.822884 9.06554 0.765703 8.99867 0.651341 8.86494L0.547224 8.74319C0.14478 8.27259 -0.0564422 8.03728 0.0137811 7.81146C0.0840043 7.58564 0.379166 7.51886 0.96949 7.38529L1.12221 7.35074C1.28997 7.31278 1.37384 7.29381 1.44119 7.24268C1.50853 7.19156 1.55173 7.11407 1.63811 6.9591L1.71676 6.81802Z" fill="#004293"/>
</g>
<defs>
<clipPath id="clip0_84_1696">
<rect width="24" height="24" fill="white"/>
</clipPath>
</defs>
</svg>
