<svg width="24" height="24" viewBox="0 0 24 24" fill="none" xmlns="http://www.w3.org/2000/svg">
<path d="M7.25224 14.6497C7.11399 14.7371 6.97277 14.8257 6.83127 14.9107C7.09221 17.4875 9.30673 19.5 12 19.5C14.8688 19.5 17.1944 17.2167 17.1944 14.4L17.1944 14.3934C17.0317 14.422 16.8635 14.4477 16.7007 14.4724L16.6817 14.4753C16.484 14.5053 16.2889 14.535 16.0884 14.5704C15.2318 14.7219 14.5399 14.6607 13.9396 14.4432C13.3815 14.241 12.9607 13.9203 12.6503 13.6837L12.6214 13.6617C12.2848 13.4054 12.0647 13.2453 11.7922 13.1466C11.5445 13.0569 11.1898 12.9985 10.6031 13.1023C9.7429 13.2545 8.97362 13.6138 8.26293 14.0256C7.95875 14.2018 7.67673 14.3806 7.39847 14.5571L7.25224 14.6497Z" fill="#004293"/>
<path fill-rule="evenodd" clip-rule="evenodd" d="M1 9.6C1 5.07452 1 2.81178 2.43192 1.40589C3.86384 0 6.16849 0 10.7778 0H13.2222C17.8315 0 20.1362 0 21.5681 1.40589C23 2.81178 23 5.07452 23 9.6V14.4C23 18.9255 23 21.1882 21.5681 22.5941C20.1362 24 17.8315 24 13.2222 24H10.7778C6.16849 24 3.86384 24 2.43192 22.5941C1 21.1882 1 18.9255 1 14.4V9.6ZM19.0278 14.4C19.0278 14.1369 19.0128 13.8772 18.9836 13.6218L19.008 13.6053L18.897 13.0683C18.265 9.89477 15.4173 7.5 12 7.5C8.11866 7.5 4.97222 10.5892 4.97222 14.4C4.97222 18.2108 8.11866 21.3 12 21.3C15.8813 21.3 19.0278 18.2108 19.0278 14.4ZM7.11111 3.9C6.60485 3.9 6.19444 4.30294 6.19444 4.8C6.19444 5.29706 6.60485 5.7 7.11111 5.7H16.8889C17.3951 5.7 17.8056 5.29706 17.8056 4.8C17.8056 4.30294 17.3951 3.9 16.8889 3.9H7.11111Z" fill="#004293"/>
</svg>
