<svg width="32" height="32" viewBox="0 0 32 32" fill="none" xmlns="http://www.w3.org/2000/svg">
<path d="M16.0002 26.6671C21.8912 26.6671 26.6668 24.518 26.6668 21.8671C26.6668 20.516 25.4263 19.2953 23.4299 18.423C22.2117 20.6585 20.354 22.5855 17.9943 23.5939C16.726 24.1359 15.2744 24.1359 14.006 23.5939C11.6463 22.5855 9.7886 20.6585 8.57038 18.423C6.57398 19.2953 5.3335 20.516 5.3335 21.8671C5.3335 24.518 10.1091 26.6671 16.0002 26.6671Z" fill="#1C274C"/>
<path fill-rule="evenodd" clip-rule="evenodd" d="M8.5332 12.2823C8.5332 8.44452 11.8761 5.33337 15.9999 5.33337C20.1236 5.33337 23.4665 8.44452 23.4665 12.2823C23.4665 16.09 21.0834 20.5333 17.3653 22.1222C16.4985 22.4926 15.5012 22.4926 14.6345 22.1222C10.9163 20.5333 8.5332 16.09 8.5332 12.2823ZM15.9999 14.9334C17.1781 14.9334 18.1332 13.9782 18.1332 12.8C18.1332 11.6218 17.1781 10.6667 15.9999 10.6667C14.8217 10.6667 13.8665 11.6218 13.8665 12.8C13.8665 13.9782 14.8217 14.9334 15.9999 14.9334Z" fill="#004293"/>
</svg>
