<svg width="49" height="49" viewBox="0 0 49 49" fill="none" xmlns="http://www.w3.org/2000/svg">
<path d="M8.7546 8.83656C8.12587 8.62699 7.44629 8.96678 7.23671 9.59551C7.02713 10.2242 7.36692 10.9038 7.99566 11.1134L8.41951 11.2547C9.50177 11.6154 10.2173 11.8559 10.7444 12.1011C11.2435 12.3333 11.4593 12.5202 11.5976 12.712C11.7359 12.9038 11.8449 13.1677 11.9074 13.7146C11.9733 14.2922 11.9751 15.047 11.9751 16.1878L11.9751 20.4628C11.9751 22.6509 11.9751 24.4146 12.1616 25.8018C12.3552 27.242 12.7694 28.4546 13.7325 29.4176C14.6956 30.3807 15.9082 30.7949 17.3483 30.9885C18.7355 31.175 20.4992 31.175 22.6873 31.175H33.9751C34.6379 31.175 35.1751 30.6377 35.1751 29.975C35.1751 29.3122 34.6379 28.775 33.9751 28.775H22.7751C20.4785 28.775 18.8767 28.7724 17.6681 28.6099C16.4941 28.4521 15.8724 28.1634 15.4295 27.7206C15.0532 27.3443 14.7882 26.8388 14.6202 25.975H30.8104C32.3454 25.975 33.113 25.975 33.7141 25.5786C34.3152 25.1822 34.6176 24.4767 35.2223 23.0658L35.908 21.4658C37.2032 18.4437 37.8508 16.9326 37.1394 15.8538C36.428 14.775 34.7841 14.775 31.4961 14.775H14.3672C14.3578 14.2827 14.3371 13.8385 14.2919 13.4424C14.2033 12.6667 14.0103 11.9549 13.5446 11.3087C13.0788 10.6625 12.4646 10.2543 11.7567 9.92502C11.0907 9.61521 10.2438 9.33293 9.24163 8.9989L8.7546 8.83656Z" fill="white"/>
<path d="M17.1748 33.975C18.5003 33.975 19.5748 35.0496 19.5748 36.375C19.5748 37.7005 18.5003 38.775 17.1748 38.775C15.8493 38.775 14.7748 37.7005 14.7748 36.375C14.7748 35.0496 15.8493 33.975 17.1748 33.975Z" fill="white"/>
<path d="M31.5748 33.9752C32.9003 33.9752 33.9748 35.0497 33.9748 36.3752C33.9748 37.7006 32.9003 38.7752 31.5748 38.7752C30.2493 38.7752 29.1748 37.7006 29.1748 36.3752C29.1748 35.0497 30.2493 33.9752 31.5748 33.9752Z" fill="white"/>
</svg>
